<?xml version="1.0" encoding="utf-8" ?>
<svg xmlns="http://www.w3.org/2000/svg" xmlns:xlink="http://www.w3.org/1999/xlink" width="1024" height="1024">
	<path fill="#FEFEFE" d="M0 0L1024 0L1024 1024L0 1024L0 0Z"/>
	<path fill="#1F475F" d="M145.395 418.575C144.925 420.648 136.482 429.475 134.672 432.468C132.132 436.665 131.229 441.937 128.647 446.045C127.895 447.242 127.087 447.144 125.797 447.452C125.643 446.858 125.554 446.689 125.633 445.994C126.558 437.858 139.636 423.874 145.395 418.575Z"/>
	<path fill="#1F475F" d="M151.436 594.752C155.597 599.542 154.145 617.464 154.379 623.835C154.538 628.165 154.965 632.405 155.575 636.693C151.458 629.379 150.45 603.307 151.436 594.752Z"/>
	<path fill="#1F475F" d="M84.5669 653.07C82.1001 654.622 79.3464 655.61 76.8158 657.075C76.0448 658.38 75.8978 659.61 75.8168 661.119C75.4319 668.285 88.3858 666.942 91.9364 671.651C92.6917 672.652 92.7431 673.781 92.5152 674.967C91.9874 677.711 89.3209 680.41 86.9773 681.732C81.6751 684.723 74.4991 685.118 68.7416 683.39C64.7185 682.183 41.0312 662.66 39.1768 658.938C36.6441 653.853 48.7505 645.982 50.357 641.634L49.5769 640.262C60.4302 613.248 68.7168 592.93 91.0207 572.603C87.9845 580.209 82.9842 587.445 78.8246 594.503C71.1129 607.589 63.182 621.664 57.9895 635.936C57.3398 637.722 56.9327 638.736 57.7616 640.512C65.2378 641.731 71.9086 644.737 79.6478 644.519C81.0572 640.483 81.8168 636.398 83.5026 632.41C90.4247 616.037 103.705 603.337 115.876 590.804C117.768 590.613 119.706 590.654 121.608 590.62C108.99 611.966 86.4192 626.2 84.5669 653.07Z"/>
	<path fill="#FEFEFE" d="M72.6282 650.322C73.3609 649.406 73.8299 648.083 74.6227 647.28C75.8335 646.054 77.8519 646.464 79.4429 646.436L80.0562 647.488C79.6214 648.683 79.2451 649.128 78.058 649.675C76.2594 650.503 74.5527 650.555 72.6282 650.322Z"/>
	<path fill="#FEFEFE" d="M63.3401 648.23C64.3194 646.721 64.645 645.658 66.5197 645.154C67.6815 644.843 68.9059 644.995 69.8558 645.769C71.1751 646.844 71.3394 647.834 71.2844 649.466C71.2752 649.74 71.252 650.014 71.2358 650.287C68.5236 649.798 65.9685 649.042 63.3401 648.23Z"/>
	<path fill="#FEFEFE" d="M57.0632 642.025C58.9749 642.665 60.9225 642.978 62.3051 644.476C62.4616 645.888 62.1744 646.86 61.768 648.184C59.7763 647.367 56.941 646.611 55.3223 645.197C54.6941 644.648 54.8643 644.453 54.8202 643.695C55.544 642.85 56.0494 642.482 57.0632 642.025Z"/>
	<path fill="#FEFEFE" d="M50.7958 650.947C57.5244 653.984 64.9245 655.453 72.0615 657.206C71.0333 659.136 69.7699 661.172 69.6885 663.413C69.3042 674 82.8335 670.415 86.274 674.06C85.5124 675.505 84.6324 675.802 83.2572 676.644C82.9928 676.729 82.7297 676.818 82.4639 676.899C65.7976 681.939 58.0412 664.565 45.4414 657.757C47.0633 655.27 48.7981 653.138 50.7958 650.947Z"/>
	<path fill="#1F475F" d="M169.592 581.304C171.34 585.997 169.382 592.001 168.612 596.762C165.884 613.625 164.646 632.578 174.08 647.62C172.937 654.759 176.759 655.298 173.15 661.726C184.278 671.419 193.994 664.578 199.33 669.9C200.555 671.121 201.164 672.838 201.173 674.552C201.185 676.887 200.132 679.124 198.488 680.756C192.287 686.911 172.297 687.026 164.171 685.212C161.343 684.58 158.174 682.208 155.36 682.289C155.14 683.096 154.905 683.89 154.642 684.684C152.271 685.31 149.272 684.744 146.849 684.413C143.689 683.982 140.124 683.516 138.152 680.679C135.388 676.703 137.589 668.91 138.271 664.422C136.305 660.422 136.057 653.683 134.946 649.113Q131.459 630.867 129.598 612.384C128.875 605.104 128.559 597.797 127.741 590.525L133.908 590.492C134.496 603.541 136.177 616.881 138.311 629.765C139.74 638.394 141.612 647.005 142.667 655.686C147.741 655.386 165.58 655.003 168.673 651.931C168.769 651.491 169.265 649.969 169.177 649.622C168.873 648.424 164.847 644.097 163.985 642.42C157.762 630.317 159.909 602.803 164.015 589.888C164.563 589.397 165.063 589.023 165.727 588.697C166.63 588.253 167.626 587.879 168.297 587.091C169.646 585.504 169.673 583.256 169.592 581.304Z"/>
	<path fill="#FEFEFE" d="M143.21 656.186L145.201 656.649C146.394 657.902 146.666 660.048 147.083 661.705C145.608 661.55 144.7 661.495 143.518 660.485C142.783 659.011 143.042 657.758 143.21 656.186Z"/>
	<path fill="#FEFEFE" d="M149.877 657.171C150.733 657.06 151.65 656.907 152.513 656.942C153.94 657.002 154.621 657.32 155.599 658.31C155.58 659.372 155.444 659.828 154.881 660.729C153.008 660.949 151.49 661.136 149.902 659.9C149.569 658.644 149.537 658.418 149.877 657.171Z"/>
	<path fill="#FEFEFE" d="M155.392 655.562C158.803 655.336 165.103 654.734 167.822 657.149C168.423 657.683 168.231 657.936 168.234 658.662C165.135 659.393 161.958 659.766 158.809 660.22C157.447 658.805 156.454 657.204 155.392 655.562Z"/>
	<path fill="#FEFEFE" d="M166.546 663.088C170.779 665.315 173.641 669.924 178.556 671.565C182.486 672.878 192.193 672.181 194.661 674.967L194.215 675.839C187.937 680.098 178.715 679.553 171.409 679.548C167.435 679.328 163.482 678.622 159.506 678.349C155.724 678.089 151.667 678.291 147.943 677.598C146.784 677.383 143.874 676.881 143.289 675.687C141.997 673.045 144.184 667.662 145.147 664.969C152.741 666.329 159.223 665.24 166.546 663.088Z"/>
	<path fill="#1F475F" d="M827.52 339.6C838.603 339.69 849.892 340.8 860.961 341.45Q893.287 343.428 925.631 345.066C933.077 354.513 939.626 365.133 946.434 375.063L985.196 431.271C977.159 429.735 968.87 428.862 960.742 427.859C958.014 433.533 956.064 439.684 953.701 445.528C951.689 450.505 948.942 455.793 947.496 460.924C946.535 464.33 947.374 468.095 946.004 471.45C945.33 473.101 943.983 474.881 942.224 475.469C940.892 475.913 939.622 475.933 938.347 475.278C936.966 474.57 935.89 473.169 935.525 471.667C934.928 469.205 935.824 467.025 936.99 464.905C939.111 462.565 941.145 460.252 942.812 457.559C946.466 451.656 964.518 416.885 965.099 411.471C964.615 410.297 964.657 410.165 963.568 409.551C960.907 411.021 956.474 423.501 954.638 426.897C951.246 426.417 947.887 426.119 944.468 425.908C946.395 420.921 950.23 415.321 949.071 409.778C946.263 396.351 927.704 381.593 916.994 374.453C904.627 366.209 869.639 349.978 855.888 353.286C851.443 354.355 847.491 362.734 845.192 366.383C839.653 358.536 831.616 347.986 827.52 339.6Z"/>
	<path fill="#1F475F" d="M405.099 455.532L472.496 455.339L472.431 477.995L430.583 478.034C430.485 488.849 430.609 499.676 430.625 510.492L465.42 510.446L465.508 533.572L458.509 533.734L430.691 533.787C430.275 549.819 430.75 565.938 430.634 581.981L405.428 581.848L405.099 455.532Z"/>
	<path fill="#1F475F" d="M366.282 455.652L390.343 455.773L390.171 505.444C390.182 519.161 391.853 533.936 388.5 547.316Q388.091 548.946 387.577 550.546Q387.063 552.146 386.446 553.709Q385.829 555.272 385.111 556.792Q384.393 558.312 383.578 559.781Q382.762 561.251 381.853 562.664Q380.944 564.077 379.944 565.428Q378.945 566.779 377.859 568.062Q376.774 569.345 375.607 570.555C366.211 580.126 354.255 584.049 341.02 584.089C327.37 584.13 313.713 580.142 303.863 570.305C286.537 553.004 289.577 525.269 289.558 502.875L289.549 455.847L313.94 455.91L313.962 504.335C313.961 515.685 313.016 528.218 315.256 539.344C316.284 544.456 318.28 549.441 321.826 553.342C326.442 558.42 332.859 560.692 339.6 560.943C346.287 561.191 353.06 559.46 357.958 554.674C362.089 550.637 364.182 545.198 365.291 539.639C367.39 529.124 366.45 517.687 366.436 506.985L366.282 455.652Z"/>
	<path fill="#1F475F" d="M770.271 453.702C787.554 453.088 803.889 458.273 817.266 469.246C812.447 475.303 808.367 482.161 803.978 488.553C799.522 485.474 794.978 482.673 789.901 480.726C779.675 476.805 767.179 476.556 757.132 481.181C747.167 485.769 739.321 494.934 735.651 505.2C731.965 515.514 732.853 527.909 737.547 537.759Q737.979 538.646 738.454 539.512Q738.929 540.377 739.445 541.218Q739.962 542.059 740.519 542.874Q741.075 543.689 741.671 544.476Q742.267 545.263 742.901 546.02Q743.534 546.777 744.203 547.502Q744.873 548.227 745.577 548.919Q746.281 549.61 747.018 550.267Q747.755 550.924 748.523 551.544Q749.291 552.164 750.088 552.745Q750.886 553.327 751.71 553.87Q752.535 554.412 753.385 554.913Q754.235 555.415 755.109 555.874Q755.982 556.334 756.877 556.75Q757.772 557.167 758.686 557.539Q759.6 557.912 760.531 558.239C770.218 561.665 782.197 561.411 791.516 556.931C800.044 552.831 803.586 546.397 806.512 537.827C793.864 537.058 780.795 537.688 768.104 537.642L768.084 516.479L783.75 516.469Q807.166 516.612 830.58 516.241C830.683 533.939 830.733 550.116 818.914 564.647C809.634 576.055 795.659 582.722 781.165 584.127C763.296 585.858 744.688 580.996 730.759 569.524C717.778 558.833 710.03 543.659 708.531 526.947C706.806 507.718 711.629 490.835 724.065 476.107C736.113 461.837 751.883 455.191 770.271 453.702Z"/>
	<path fill="#1F475F" d="M614.281 455.665C628.818 455.684 651.334 454.379 664.863 457.285C676.425 459.769 686.836 465.578 693.286 475.739C699.513 485.548 700.701 498.49 698.05 509.651C694.967 522.63 686.719 530.665 675.732 537.539C684.969 552.224 694.396 567.022 703.104 582.021C697.658 582.125 692.197 582.062 686.75 582.074L675.122 582.047C666.899 568.791 658.836 555.289 650.008 542.431L639.225 542.445C639.034 555.596 639.219 568.775 639.224 581.929L614.398 581.965L614.281 455.665Z"/>
	<path fill="#FEFEFE" d="M639.375 479.006C649.329 478.807 661.616 478.123 669.474 485.522C673.189 489.019 674.67 493.71 674.773 498.72C674.903 504.978 672.741 509.503 668.489 513.902C659.815 520.529 649.536 519.695 639.255 519.515C638.833 506.052 639.168 492.475 639.375 479.006Z"/>
	<path fill="#1F475F" d="M856.178 357.473C872.604 355.777 901.669 369.737 915.814 378.971C926.436 385.906 942.726 398.404 945.457 411.554C942.34 422.179 933.785 437.315 928.787 448.178C922.567 434.125 907.416 421.409 895.058 412.902C881.417 403.512 855.997 389.739 839.137 393.39C837.054 393.841 835.854 394.537 834.673 396.298C834.438 397.702 834.434 398.744 834.8 400.135C835.182 401.585 835.731 402.644 837.069 403.418C838.824 402.588 838.307 399.125 840.259 398.057C843.788 396.125 850.602 397.588 854.356 398.625C877.246 404.947 911.856 426.366 923.014 447.16C924.595 450.106 926.027 453.933 924.878 457.283C924.418 458.625 923.503 459.654 922.179 460.213C917.615 462.141 910.879 458.949 906.487 457.351L906.409 480.283L865.492 480.136C865.458 489.835 864.656 500.244 865.702 509.841Q882.509 509.862 899.313 509.532Q899.085 521.406 899.166 533.281Q882.303 533.406 865.439 533.308L865.467 558.625L907.394 558.564L907.387 582.187Q874.374 582.47 841.359 582.324Q840.744 519.035 841.451 455.749C862.411 455.891 883.488 456.472 904.439 455.871Q893.483 450.506 883.155 444.014Q872.826 437.523 863.241 429.977C855.967 424.267 832.004 406.453 830.942 397.652C832.115 393.275 852.508 362.055 856.178 357.473Z"/>
	<path fill="#FEFEFE" d="M841.186 401.469C849.626 401.607 857.292 404.455 864.888 407.992C879.261 414.684 915.311 437.428 920.142 452.362C920.789 454.363 920.529 455.55 919.589 457.336C918.298 457.504 917.081 457.577 915.811 457.252C900.849 453.421 849.373 418.996 841.747 406.159C840.723 404.436 840.67 403.368 841.186 401.469Z"/>
	<path fill="#1F475F" d="M535.223 454.703Q536.824 454.595 538.428 454.566Q540.032 454.538 541.635 454.587Q543.239 454.637 544.838 454.765Q546.437 454.894 548.028 455.101Q549.618 455.307 551.197 455.592Q552.776 455.876 554.339 456.238Q555.902 456.599 557.445 457.037Q558.989 457.475 560.509 457.988Q562.029 458.501 563.522 459.088Q565.015 459.675 566.477 460.335Q567.939 460.995 569.368 461.725Q570.796 462.456 572.187 463.255Q573.577 464.055 574.927 464.922Q576.277 465.789 577.583 466.721Q578.888 467.653 580.147 468.648Q581.405 469.643 582.613 470.699C595.504 481.907 603.378 496.606 604.535 513.748C605.717 531.256 601.028 547.78 589.289 561.056C577.39 574.513 561.909 582.649 543.933 583.694C527.451 584.868 509.619 578.806 497.06 568.154C484.369 557.389 476.676 543.154 475.426 526.477C474.011 507.592 479.461 489.534 491.898 475.132C503.022 462.252 518.51 456.008 535.223 454.703Z"/>
	<path fill="#FEFEFE" d="M535.999 479.189C544.397 478.088 553.546 480.596 560.652 485.063Q561.495 485.6 562.311 486.178Q563.127 486.755 563.914 487.373Q564.701 487.99 565.456 488.645Q566.211 489.3 566.934 489.991Q567.656 490.682 568.344 491.408Q569.031 492.134 569.682 492.893Q570.333 493.652 570.946 494.442Q571.559 495.232 572.132 496.051Q572.706 496.87 573.238 497.716Q573.771 498.562 574.261 499.434Q574.751 500.305 575.198 501.199Q575.645 502.094 576.048 503.009Q576.45 503.924 576.807 504.858Q577.164 505.792 577.475 506.743Q577.786 507.693 578.049 508.657Q578.313 509.622 578.529 510.598C580.829 520.933 579.07 532.123 573.244 541.015C566.503 551.303 556.652 556.612 544.85 559.007C534.311 559.678 524.725 557.891 516.124 551.484C507.791 545.276 502.002 536.269 500.605 525.908C499.118 514.878 501.828 503.237 508.673 494.384C515.726 485.263 524.679 480.629 535.999 479.189Z"/>
	<path fill="#1F475F" d="M115.094 367.644C127.885 360.611 154.417 344.404 167.595 341.102C176.971 338.752 187.067 338.663 196.682 338.188C202.257 337.913 209.454 336.535 214.908 337.387C215.832 338.348 216.086 338.585 216.096 340.013C216.106 341.62 214.765 343.796 213.578 344.785C210.889 347.026 199.422 351.089 195.144 353.485C197.325 357.226 201.023 363.095 200.128 367.63C199.321 368.545 198.669 369.212 198.182 370.352C200.429 373.961 203.64 378.143 204.546 382.339C204.349 383.079 204.489 383.356 203.728 383.728C202.127 384.51 199.94 384.561 198.18 384.781C198.495 388.297 199.767 394.61 197.475 397.516C196.465 398.796 195.094 399.258 193.524 399.385C188.726 399.773 183.201 398.656 178.394 398.165C179.965 402.114 179.615 405.673 180.205 409.781C181.999 422.26 184.995 432.773 182.774 445.893C181.274 446.917 179.959 445.974 178.607 447.016C177.36 458.373 180.34 470.456 183.967 481.127Q184.139 468.557 184.06 455.987C211.265 455.882 236.609 453.55 257.666 474.345Q258.826 475.479 259.927 476.67Q261.028 477.861 262.068 479.106Q263.108 480.351 264.083 481.647Q265.059 482.943 265.968 484.286Q266.877 485.63 267.717 487.017Q268.557 488.405 269.326 489.833Q270.095 491.261 270.79 492.726Q271.486 494.192 272.107 495.69Q272.728 497.189 273.273 498.716Q273.818 500.244 274.285 501.798Q274.752 503.351 275.139 504.926Q275.527 506.501 275.835 508.094Q276.143 509.686 276.37 511.292Q276.598 512.898 276.743 514.514Q276.889 516.129 276.954 517.75Q277.018 519.371 277 520.993C276.96 537.626 271.198 553.359 259.267 565.13C239.128 584.999 210.12 581.767 184.194 581.72L184.472 537.668C188.541 533.718 205.573 515.528 210.174 515.588C211.836 515.61 212.596 515.994 213.712 517.178C214.264 517.764 214.79 518.378 215.317 518.987L215.928 518.645C215.046 516.653 213.395 514.679 213.287 512.493L213.808 511.551C214.794 511.269 215.198 511.154 216.242 511.279L216.764 511.794L215.152 512.164L215.121 512.624L216.185 513.098C217.165 512.663 217.453 512.25 218.028 511.358L217.69 511.64L218.416 511.79L218.896 513.928L219.373 513.995L219.055 514.641L219.607 514.638C220.454 513.078 221.072 511.464 221.87 509.891C221.756 508.994 221.565 508.364 221.184 507.544C219.872 509.003 219.916 508.959 219.882 510.926C217.803 511.049 215.723 509.657 214.016 508.579C213.535 507.609 213.334 507.516 213.448 506.394C214.704 506.631 215.872 507.094 217.076 507.517L217.539 507.105L217.17 505.237C214.433 504.799 211.616 503.832 208.931 503.101C206.704 504.172 204.44 505.42 202.622 507.109C198.476 510.959 195.376 515.943 192.034 520.482C186.009 528.666 179.722 537.015 172.3 543.989C171.604 544.643 171.588 544.659 171.252 545.635C172.729 546.391 173.66 546.023 175.225 545.588L176.201 545.312C173.258 549.411 168.358 550.045 163.756 551.053C165.155 552.513 166.51 553.823 168.155 555.008L168.581 555.31L168.682 556.327L167.605 556.84C165.974 556.241 164.437 554.942 162.998 553.962C161.919 554.523 160.983 555.155 159.993 555.854L159.292 555.439C157.472 552.674 156.506 549.452 156.148 546.171C155.935 544.22 155.015 537.207 156.193 535.741C158.102 540.907 158.994 546.447 160.661 551.73C170.874 539.562 179.795 527.329 188.637 514.137C183.139 512.484 177.565 510.913 172.551 508.044C165.98 504.283 160.955 498.702 158.979 491.242C157.886 487.117 156.941 481.855 159.188 478.037C156.009 476.014 126.462 477.122 121.011 477.331L120.98 509.845L152.921 509.813L152.979 530.968L121.008 530.968L121.008 560.458Q142.779 560.512 164.55 560.329L164.613 581.781L99.0714 581.465L99.0133 456.477Q131.852 456.696 164.691 456.516C164.677 463.248 164.998 470.21 164.37 476.905C163.085 477.959 160.936 477.116 159.334 477.987C161.844 482.991 161.11 488.978 164.122 494.226C169.858 504.224 181.626 506.554 191.862 509.279C194.534 506.291 197.283 503.467 200.193 500.71L198.116 499.616C193.408 497.128 188.346 494.702 184.432 491.026C176.265 483.356 174.99 467.79 175.062 457.223C175.083 453.984 176.389 449.766 175.434 446.669C168.815 443.871 164.208 447.975 157.96 448.774C154.064 449.273 149.804 448.989 145.867 449.032C148.396 435.547 152.259 426.38 163.287 417.807C158.297 410.664 151.797 403.979 144.279 399.472C131.319 413.761 122.193 429.566 115.073 447.375L108.066 447.495C116.484 423.68 129.472 400.33 151.461 386.755C151.632 382.234 152.226 378.868 148.98 375.268C146.201 372.185 144.915 371.187 144.141 367.006C137.412 368.231 128.274 371.716 121.636 370.318C119.394 369.846 117.16 368.619 115.094 367.644Z"/>
	<path fill="#FEFEFE" d="M187.764 354.565C188.585 354.451 188.915 354.51 189.699 354.693C190.22 355.834 190.172 355.873 189.88 357.104C186.927 360.555 159.464 370.125 154.062 371.175C153.142 370.619 152.714 369.998 152.244 369.055C151.58 367.72 151.379 366.752 151.836 365.336C155.772 363.457 160.505 362.593 164.69 361.341C172.368 359.043 179.992 356.529 187.764 354.565Z"/>
	<path fill="#FEFEFE" d="M151.041 390.77C151.127 390.803 151.216 390.831 151.299 390.871C160.824 395.456 170.02 407.804 174.013 417.398C175.338 420.58 178.68 431.043 177.394 434.143L176.715 432.873C171.483 415.783 161.238 404.855 146.143 395.738C147.669 393.979 149.371 392.391 151.041 390.77Z"/>
	<path fill="#FEFEFE" d="M187.383 344.713C190.022 344.581 192.544 344.941 195.15 345.284Q170.687 353.413 145.783 360.071C143.049 360.984 140.422 361.512 137.588 361.978C146.394 355.181 161.911 348.592 172.828 346.285C177.652 345.265 182.475 344.98 187.383 344.713Z"/>
	<path fill="#FEFEFE" d="M163.287 417.807C167.025 422.193 172.385 432.601 172.029 438.441C171.955 439.658 171.643 440.046 170.68 440.81C168.187 442.79 162.935 443.387 159.866 444.488C157.233 445.325 154.602 446.248 151.911 446.881C152.432 438.449 154.569 430.888 159.082 423.67C160.358 421.628 162.026 419.833 163.287 417.807Z"/>
	<path fill="#FEFEFE" d="M193.367 362.973C194.1 363.636 194.384 364.406 194.491 365.384C194.786 368.065 195.523 372.409 193.669 374.617C192.672 374.699 192.127 374.726 191.319 375.342C191.953 375.381 192.61 375.406 193.24 375.504Q193.553 375.552 193.86 375.634Q194.166 375.715 194.462 375.828Q194.759 375.941 195.041 376.084Q195.324 376.228 195.59 376.4Q195.856 376.572 196.103 376.772Q196.349 376.971 196.574 377.195Q196.798 377.419 196.997 377.666Q197.197 377.912 197.369 378.178C197.859 378.94 197.697 378.719 197.504 379.718C195.144 380.271 191.817 379.312 189.4 378.895C191.234 380.031 193.726 380.879 195.191 382.421L194.501 383.128L192.442 383.128C191.222 384.382 193.386 391.523 193.376 394.016C190.484 394.073 187.531 393.891 184.659 393.537C180.984 393.083 177.878 392.344 175.533 389.317C174.638 388.162 173.748 386.871 172.413 386.184C170.577 385.237 168.892 385.937 167.09 386.527L167.696 386.925C168.162 387.225 168.638 387.508 169.075 387.852C170.334 388.842 170.938 390.168 171.153 391.726L170.564 392.143C167.305 391.452 163.783 388.995 160.833 387.388L160.938 376.943C162.909 376.113 164.988 375.546 167.031 374.919L167.82 380.136C168.944 381.33 170.24 383.013 171.755 383.68C172.619 384.06 172.244 383.991 173.22 383.622C173.948 380.741 172.538 376.969 172.918 373.702L173.013 372.931C179.001 368.627 186.794 366.43 193.367 362.973Z"/>
	<path fill="#FEFEFE" d="M206.473 476.343C219.075 476.446 229.594 478.744 238.748 487.997C247.758 497.105 251.524 509.179 251.345 521.816C251.187 532.975 247.887 543.917 239.67 551.809C230.48 560.636 218.622 561.643 206.522 561.458C206.498 548.205 206.244 534.865 206.942 521.628C210.131 522.011 213.349 522.499 216.553 522.697C219.165 521.5 221.198 520.147 223.15 518.034C224 515.042 225.604 510.495 224.034 507.551C223.599 506.735 223.08 506.092 222.473 505.404L220.743 503.704C216.452 500.862 211.658 499.503 206.514 500.367Q206.413 488.355 206.473 476.343Z"/>
</svg>
